<svg width="38" height="28" viewBox="0 0 38 28" fill="none" xmlns="http://www.w3.org/2000/svg">
<path d="M25.3207 9.19965H16.5958C16.56 8.67219 16.3606 8.17041 16.027 7.76788C15.6792 7.35647 15.2392 7.03809 14.7451 6.84012C14.1925 6.61131 13.6016 6.49576 13.0058 6.49998C12.2784 6.47849 11.5564 6.63537 10.8997 6.95765C10.6444 7.06122 10.4257 7.24173 10.2721 7.47545C10.1185 7.70917 10.0373 7.98517 10.0392 8.26719C10.0404 8.47958 10.0865 8.68915 10.1744 8.8814C10.2622 9.07365 10.3896 9.244 10.5478 9.38064C10.8963 9.72291 11.5754 9.98885 12.585 10.1785L17.9516 11.1667C20.6576 11.6739 22.6722 12.5254 23.9953 13.7213C25.3184 14.9171 25.9864 16.5171 25.9992 18.5213C26.0243 20.3464 25.432 22.1239 24.3233 23.5499C23.1279 25.0365 21.5705 26.1709 19.8098 26.8375C17.7247 27.6431 15.5104 28.0366 13.2832 27.9973C9.24705 27.9973 6.09058 27.1489 3.81377 25.4521C2.73488 24.6935 1.83318 23.6984 1.17368 22.5384C0.51419 21.3783 0.113328 20.0824 0 18.7439H9.42727C9.47828 19.1486 9.61659 19.5365 9.8321 19.8792C10.0476 20.222 10.3349 20.5109 10.6729 20.725C11.4799 21.2194 12.4092 21.4622 13.3479 21.4241C14.092 21.4528 14.8318 21.2957 15.504 20.9664C15.7559 20.8568 15.9718 20.6751 16.1259 20.4429C16.2801 20.2107 16.3661 19.9379 16.3737 19.6569C16.3673 19.4008 16.2945 19.1511 16.1628 18.9336C16.0311 18.7162 15.8453 18.5388 15.6246 18.4199C14.9144 18.0345 14.1431 17.7821 13.3469 17.6744L8.66902 16.8356C5.97297 16.3532 3.95446 15.4336 2.61351 14.0769C1.27256 12.7201 0.608295 10.9758 0.620709 8.84406C0.558861 7.12074 1.07127 5.42735 2.07317 4.04408C3.16807 2.64775 4.63032 1.60425 6.28583 1.03783C8.38047 0.303057 10.5847 -0.0465762 12.7974 0.00497184C16.6088 0.00497184 19.6173 0.818345 21.8228 2.44509C24.0284 4.07184 25.1944 6.32336 25.3207 9.19965Z" fill="#317BFF"/>
<path d="M33.0004 27.9995C32.3416 28.0093 31.6877 27.8845 31.0782 27.6326C30.4687 27.3807 29.9163 27.0068 29.4545 26.5337C28.9788 26.0733 28.6039 25.5179 28.3538 24.9031C28.1036 24.2884 27.9837 23.6278 28.0018 22.9637C27.9875 22.3091 28.1096 21.6588 28.3604 21.0547C28.6111 20.4506 28.9849 19.9062 29.4576 19.4565C30.391 18.5235 31.6529 18 32.9681 18C34.2834 18 35.5453 18.5235 36.4787 19.4565C36.9606 19.9024 37.3448 20.4446 37.6068 21.0485C37.8687 21.6524 38.0026 22.3047 38 22.9637C37.9991 23.8629 37.7491 24.7441 37.2782 25.5082C36.8224 26.2534 36.1939 26.8761 35.4466 27.3229C34.7084 27.7705 33.862 28.0045 33.0004 27.9991V27.9995Z" fill="#F9CA00"/>
</svg>
