<svg width="89" height="28" viewBox="0 0 89 28" fill="none" xmlns="http://www.w3.org/2000/svg">
<path d="M25.3207 9.19965H16.5958C16.56 8.67219 16.3606 8.17041 16.027 7.76788C15.6792 7.35647 15.2392 7.03809 14.7451 6.84012C14.1925 6.61131 13.6016 6.49576 13.0058 6.49998C12.2784 6.47849 11.5564 6.63537 10.8997 6.95765C10.6444 7.06122 10.4257 7.24173 10.2721 7.47545C10.1185 7.70917 10.0373 7.98517 10.0392 8.26719C10.0404 8.47958 10.0865 8.68915 10.1744 8.8814C10.2622 9.07365 10.3896 9.244 10.5478 9.38064C10.8963 9.72291 11.5754 9.98885 12.585 10.1785L17.9516 11.1667C20.6576 11.6739 22.6722 12.5254 23.9953 13.7213C25.3184 14.9171 25.9864 16.5171 25.9992 18.5213C26.0243 20.3464 25.432 22.1239 24.3233 23.5499C23.1279 25.0365 21.5705 26.1709 19.8098 26.8375C17.7247 27.6431 15.5104 28.0366 13.2832 27.9973C9.24705 27.9973 6.09058 27.1489 3.81377 25.4521C2.73488 24.6935 1.83318 23.6984 1.17368 22.5384C0.51419 21.3783 0.113328 20.0824 0 18.7439H9.42727C9.47828 19.1486 9.61659 19.5365 9.8321 19.8792C10.0476 20.222 10.3349 20.5109 10.6729 20.725C11.4799 21.2194 12.4092 21.4622 13.3479 21.4241C14.092 21.4528 14.8318 21.2957 15.504 20.9664C15.7559 20.8568 15.9718 20.6751 16.1259 20.4429C16.2801 20.2107 16.3661 19.9379 16.3737 19.6569C16.3673 19.4008 16.2945 19.1511 16.1628 18.9336C16.0311 18.7162 15.8453 18.5388 15.6246 18.4199C14.9144 18.0345 14.1431 17.7821 13.3469 17.6744L8.66902 16.8356C5.97297 16.3532 3.95446 15.4336 2.61351 14.0769C1.27256 12.7201 0.608295 10.9758 0.620709 8.84406C0.558861 7.12074 1.07127 5.42735 2.07317 4.04408C3.16807 2.64775 4.63032 1.60425 6.28583 1.03783C8.38047 0.303057 10.5847 -0.0465762 12.7974 0.00497184C16.6088 0.00497184 19.6173 0.818345 21.8228 2.44509C24.0284 4.07184 25.1944 6.32336 25.3207 9.19965Z" fill="white"/>
<path d="M42.9978 28C40.0657 28 37.5579 27.4135 35.4747 26.2404C33.4307 25.1141 31.7611 23.4086 30.6734 21.3361C29.5218 19.0699 28.9481 16.5516 29.0037 14.0074C28.9478 11.4641 29.5216 8.94677 30.6734 6.68173C31.7583 4.60258 33.4282 2.89066 35.4747 1.75957C37.5608 0.586523 40.0686 0 42.9978 0C45.9271 0 48.4362 0.586523 50.5253 1.75957C52.5689 2.88953 54.2373 4.5982 55.3232 6.67333C56.4748 8.9386 57.0496 11.4556 56.9962 13.999C57.0525 16.5467 56.4774 19.0684 55.3229 21.3371C54.2369 23.4119 52.5687 25.1203 50.5253 26.2502C48.4371 27.4167 45.928 28 42.9978 28ZM43.0686 20.7858C43.8582 20.7982 44.6216 20.501 45.1971 19.9572C45.8556 19.3017 46.3338 18.4858 46.5849 17.589C46.9361 16.4021 47.1022 15.1676 47.0771 13.9295C47.1034 12.6882 46.9373 11.4503 46.5849 10.2603C46.3326 9.36669 45.8548 8.55387 45.1978 7.90077C44.6223 7.357 43.8589 7.05982 43.0693 7.07218C42.2475 7.05466 41.4497 7.35072 40.8363 7.90077C40.1602 8.54498 39.6684 9.35983 39.4124 10.2603C39.0598 11.4507 38.8937 12.6891 38.9202 13.9308C38.8951 15.1689 39.0612 16.4034 39.4124 17.5903C39.6669 18.494 40.1588 19.3122 40.8363 19.9589C41.4497 20.5083 42.2473 20.8039 43.0686 20.7861V20.7858Z" fill="white"/>
<path d="M61 27V0.346721H70.2773V5.41264H70.5528C71.0371 3.53791 71.8082 2.16776 72.8661 1.3022C73.9088 0.438463 75.2255 -0.0231101 76.5782 0.000891014C76.9927 0.00196959 77.4066 0.0334529 77.8165 0.0950885C78.2168 0.15755 78.6122 0.247793 79 0.365165V8.53136C78.4316 8.35038 77.8461 8.22842 77.2528 8.16742C76.661 8.09422 76.0656 8.05376 75.4694 8.04621C74.5887 8.03293 73.7201 8.25156 72.9503 8.68023C72.2129 9.0958 71.6051 9.70803 71.1941 10.4489C70.752 11.2655 70.5307 12.1837 70.5521 13.1125V27H61Z" fill="white"/>
<path d="M84.0004 27.9995C83.3416 28.0093 82.6877 27.8845 82.0782 27.6326C81.4687 27.3807 80.9163 27.0068 80.4545 26.5337C79.9788 26.0733 79.6039 25.5179 79.3538 24.9031C79.1036 24.2884 78.9837 23.6278 79.0018 22.9637C78.9875 22.3091 79.1096 21.6588 79.3604 21.0547C79.6111 20.4506 79.9849 19.9062 80.4576 19.4565C81.391 18.5235 82.6529 18 83.9681 18C85.2834 18 86.5453 18.5235 87.4787 19.4565C87.9606 19.9024 88.3448 20.4446 88.6068 21.0485C88.8687 21.6524 89.0026 22.3047 89 22.9637C88.9991 23.8629 88.7491 24.7441 88.2782 25.5082C87.8224 26.2534 87.1939 26.8761 86.4466 27.3229C85.7084 27.7705 84.862 28.0045 84.0004 27.9991V27.9995Z" fill="#317BFF"/>
</svg>
